<svg xmlns="http://www.w3.org/2000/svg" viewBox="0 0 1200 800" font-family="'Noto Sans Thai','Sukhumvit Set','Leelawadee UI','Segoe UI',Tahoma,sans-serif">
<defs><clipPath id="c"><rect width="1200" height="800" rx="18"/></clipPath>
<filter id="sh" x="-10%" y="-10%" width="120%" height="130%"><feDropShadow dx="0" dy="4" stdDeviation="6" flood-opacity=".08"/></filter></defs>
<g clip-path="url(#c)">
<rect x="0" y="0" width="1200" height="800" rx="0" fill="#ffffff" />
<rect x="0" y="0" width="1200" height="52" rx="0" fill="#e9edf0" />
<circle cx="26" cy="26" r="6.5" fill="#ff5f57"/><circle cx="48" cy="26" r="6.5" fill="#febc2e"/><circle cx="70" cy="26" r="6.5" fill="#28c840"/>
<rect x="250" y="13" width="700" height="27" rx="13.5" fill="#ffffff" />
<path d="M270 22.5v-2a4 4 0 0 1 8 0v2" fill="none" stroke="#6b7280" stroke-width="1.6"/><rect x="267" y="22" width="14" height="10" rx="2" fill="#6b7280" />
<text x="292" y="31.5" font-size="13" font-weight="400" fill="#6b7280" text-anchor="start">app.powerbi.com/reports/sales</text>
<g transform="translate(0 52)"><rect x="0" y="0" width="1200" height="748" rx="0" fill="#f3f2f1" /><rect x="0" y="0" width="1200" height="48" rx="0" fill="#113f5f" /><text x="20" y="31" font-size="15" font-weight="700" fill="#fff" text-anchor="start">Sales Report · Power BI</text><text x="1180" y="31" font-size="12.5" font-weight="400" fill="rgba(255,255,255,.75)" text-anchor="end">อัปเดตอัตโนมัติทุกเช้า 08:00</text><rect x="20" y="62" width="178" height="34" rx="4" fill="#ffffff" stroke="#e1dfdd"/><text x="34" y="84" font-size="12.5" font-weight="400" fill="#323130" text-anchor="start">ปี: 2569</text><text x="182" y="84" font-size="12" font-weight="400" fill="#605e5c" text-anchor="end">▾</text><rect x="210" y="62" width="178" height="34" rx="4" fill="#ffffff" stroke="#e1dfdd"/><text x="224" y="84" font-size="12.5" font-weight="400" fill="#323130" text-anchor="start">ไตรมาส: ทั้งหมด</text><text x="372" y="84" font-size="12" font-weight="400" fill="#605e5c" text-anchor="end">▾</text><rect x="400" y="62" width="178" height="34" rx="4" fill="#ffffff" stroke="#e1dfdd"/><text x="414" y="84" font-size="12.5" font-weight="400" fill="#323130" text-anchor="start">สาขา: ทั้งหมด</text><text x="562" y="84" font-size="12" font-weight="400" fill="#605e5c" text-anchor="end">▾</text><rect x="590" y="62" width="178" height="34" rx="4" fill="#ffffff" stroke="#e1dfdd"/><text x="604" y="84" font-size="12.5" font-weight="400" fill="#323130" text-anchor="start">หมวดสินค้า: ทั้งหมด</text><text x="752" y="84" font-size="12" font-weight="400" fill="#605e5c" text-anchor="end">▾</text><rect x="20.0" y="110" width="281.0" height="90" rx="4" fill="#ffffff" /><text x="160.5" y="152" font-size="28" font-weight="700" fill="#1f547a" text-anchor="middle">฿12.4M</text><text x="160.5" y="178" font-size="12.5" font-weight="400" fill="#605e5c" text-anchor="middle">ยอดขายรวม</text><rect x="313.0" y="110" width="281.0" height="90" rx="4" fill="#ffffff" /><text x="453.5" y="152" font-size="28" font-weight="700" fill="#1f547a" text-anchor="middle">฿3.1M</text><text x="453.5" y="178" font-size="12.5" font-weight="400" fill="#605e5c" text-anchor="middle">กำไรขั้นต้น</text><rect x="606.0" y="110" width="281.0" height="90" rx="4" fill="#ffffff" /><text x="746.5" y="152" font-size="28" font-weight="700" fill="#1f547a" text-anchor="middle">8,942</text><text x="746.5" y="178" font-size="12.5" font-weight="400" fill="#605e5c" text-anchor="middle">จำนวนออเดอร์</text><rect x="899.0" y="110" width="281.0" height="90" rx="4" fill="#ffffff" /><text x="1039.5" y="152" font-size="28" font-weight="700" fill="#1f547a" text-anchor="middle">1,205</text><text x="1039.5" y="178" font-size="12.5" font-weight="400" fill="#605e5c" text-anchor="middle">ลูกค้าใหม่</text><rect x="20" y="214" width="700" height="250" rx="4" fill="#ffffff" /><text x="36" y="240" font-size="13.5" font-weight="700" fill="#323130" text-anchor="start">ยอดขายรายเดือนเทียบปีก่อน</text><rect x="52.375" y="349.1" width="30.250000000000004" height="96.9" rx="5" fill="#338ccc" /><rect x="107.375" y="288.3" width="30.250000000000004" height="157.7" rx="5" fill="#6477d8" /><rect x="162.375" y="288.3" width="30.250000000000004" height="157.7" rx="5" fill="#338ccc" /><rect x="217.375" y="320.6" width="30.250000000000004" height="125.4" rx="5" fill="#6477d8" /><rect x="272.375" y="273.1" width="30.250000000000004" height="172.9" rx="5" fill="#338ccc" /><rect x="327.375" y="337.7" width="30.250000000000004" height="108.3" rx="5" fill="#6477d8" /><rect x="382.375" y="275.0" width="30.250000000000004" height="171.0" rx="5" fill="#338ccc" /><rect x="437.375" y="265.5" width="30.250000000000004" height="180.5" rx="5" fill="#6477d8" /><rect x="492.375" y="345.3" width="30.250000000000004" height="100.7" rx="5" fill="#338ccc" /><rect x="547.375" y="267.4" width="30.250000000000004" height="178.6" rx="5" fill="#6477d8" /><rect x="602.375" y="332.0" width="30.250000000000004" height="114.0" rx="5" fill="#338ccc" /><rect x="657.375" y="389.0" width="30.250000000000004" height="57.0" rx="5" fill="#6477d8" /><line x1="56" x2="686" y1="270.0" y2="270.0" stroke="#eef0f3"/><line x1="56" x2="686" y1="307.5" y2="307.5" stroke="#eef0f3"/><line x1="56" x2="686" y1="345.0" y2="345.0" stroke="#eef0f3"/><line x1="56" x2="686" y1="382.5" y2="382.5" stroke="#eef0f3"/><line x1="56" x2="686" y1="420.0" y2="420.0" stroke="#eef0f3"/><path d="M56.0 342.0 L113.3 330.0 L170.5 349.5 L227.8 327.0 L285.1 325.5 L342.4 342.0 L399.6 348.0 L456.9 358.5 L514.2 345.0 L571.5 321.0 L628.7 319.5 L686.0 304.5" fill="none" stroke="#bd6628" stroke-width="3" stroke-linejoin="round"/><circle cx="571.4545454545455" cy="321.0" r="6" fill="#fff" stroke="#bd6628" stroke-width="3"/><rect x="732" y="214" width="448" height="250" rx="4" fill="#ffffff" /><text x="748" y="240" font-size="13.5" font-weight="700" fill="#323130" text-anchor="start">สัดส่วนตามสาขา</text><path d="M956.0 270.0 A80 80 0 0 1 1030.7 378.7" fill="none" stroke="#338ccc" stroke-width="26"/><path d="M1030.7 378.7 A80 80 0 0 1 976.9 427.2" fill="none" stroke="#4b4bd2" stroke-width="26"/><path d="M976.9 427.2 A80 80 0 0 1 877.5 365.2" fill="none" stroke="#a864d8" stroke-width="26"/><path d="M877.5 365.2 A80 80 0 0 1 956.0 270.0" fill="none" stroke="#de7cce" stroke-width="26"/><text x="956" y="354" font-size="24" font-weight="700" fill="#111827" text-anchor="middle">30%</text><text x="956" y="374" font-size="11" font-weight="400" fill="#6b7280" text-anchor="middle">สัดส่วนสูงสุด</text><rect x="20" y="476" width="560" height="256" rx="4" fill="#ffffff" /><text x="36" y="502" font-size="13.5" font-weight="700" fill="#323130" text-anchor="start">สินค้าขายดี 5 อันดับ</text><text x="36" y="540" font-size="12.5" font-weight="400" fill="#323130" text-anchor="start">โน้ตบุ๊ก</text><rect x="150" y="526" width="358.8" height="22" rx="2" fill="#2e7eb8" /><text x="516.8" y="542" font-size="11.5" font-weight="400" fill="#605e5c" text-anchor="start">92%</text><text x="36" y="580" font-size="12.5" font-weight="400" fill="#323130" text-anchor="start">จอมอนิเตอร์</text><rect x="150" y="566" width="288.59999999999997" height="22" rx="2" fill="#338ccc" /><text x="446.59999999999997" y="582" font-size="11.5" font-weight="400" fill="#605e5c" text-anchor="start">74%</text><text x="36" y="620" font-size="12.5" font-weight="400" fill="#323130" text-anchor="start">กล้อง CCTV</text><rect x="150" y="606" width="245.7" height="22" rx="2" fill="#4798d1" /><text x="403.7" y="622" font-size="11.5" font-weight="400" fill="#605e5c" text-anchor="start">63%</text><text x="36" y="660" font-size="12.5" font-weight="400" fill="#323130" text-anchor="start">เราเตอร์</text><rect x="150" y="646" width="187.2" height="22" rx="2" fill="#5ca3d6" /><text x="345.2" y="662" font-size="11.5" font-weight="400" fill="#605e5c" text-anchor="start">48%</text><text x="36" y="700" font-size="12.5" font-weight="400" fill="#323130" text-anchor="start">SSD</text><rect x="150" y="686" width="144.29999999999998" height="22" rx="2" fill="#70afdb" /><text x="302.29999999999995" y="702" font-size="11.5" font-weight="400" fill="#605e5c" text-anchor="start">37%</text><rect x="592" y="476" width="588" height="256" rx="4" fill="#ffffff" /><text x="608" y="502" font-size="13.5" font-weight="700" fill="#323130" text-anchor="start">แนวโน้มออเดอร์รายวัน</text><line x1="612" x2="1160" y1="524.0" y2="524.0" stroke="#eef0f3"/><line x1="612" x2="1160" y1="569.0" y2="569.0" stroke="#eef0f3"/><line x1="612" x2="1160" y1="614.0" y2="614.0" stroke="#eef0f3"/><line x1="612" x2="1160" y1="659.0" y2="659.0" stroke="#eef0f3"/><line x1="612" x2="1160" y1="704.0" y2="704.0" stroke="#eef0f3"/><path d="M612.0 639.2 L630.9 610.4 L649.8 623.0 L668.7 603.2 L687.6 612.2 L706.5 633.8 L725.4 644.6 L744.3 657.2 L763.2 657.2 L782.1 668.0 L801.0 677.0 L819.9 677.0 L838.8 677.0 L857.7 677.0 L876.6 677.0 L895.4 651.8 L914.3 630.2 L933.2 632.0 L952.1 648.2 L971.0 660.8 L989.9 677.0 L1008.8 657.2 L1027.7 644.6 L1046.6 648.2 L1065.5 650.0 L1084.4 637.4 L1103.3 617.6 L1122.2 601.4 L1141.1 599.6 L1160.0 601.4 L1160 704 L612 704Z" fill="#3c9add" opacity=".12"/><path d="M612.0 639.2 L630.9 610.4 L649.8 623.0 L668.7 603.2 L687.6 612.2 L706.5 633.8 L725.4 644.6 L744.3 657.2 L763.2 657.2 L782.1 668.0 L801.0 677.0 L819.9 677.0 L838.8 677.0 L857.7 677.0 L876.6 677.0 L895.4 651.8 L914.3 630.2 L933.2 632.0 L952.1 648.2 L971.0 660.8 L989.9 677.0 L1008.8 657.2 L1027.7 644.6 L1046.6 648.2 L1065.5 650.0 L1084.4 637.4 L1103.3 617.6 L1122.2 601.4 L1141.1 599.6 L1160.0 601.4" fill="none" stroke="#287fbd" stroke-width="3" stroke-linejoin="round"/><circle cx="1122.2068965517242" cy="601.4" r="6" fill="#fff" stroke="#287fbd" stroke-width="3"/></g>
</g></svg>