<svg xmlns="http://www.w3.org/2000/svg" viewBox="0 0 1200 800" font-family="'Noto Sans Thai','Sukhumvit Set','Leelawadee UI','Segoe UI',Tahoma,sans-serif">
<defs><clipPath id="c"><rect width="1200" height="800" rx="18"/></clipPath>
<filter id="sh" x="-10%" y="-10%" width="120%" height="130%"><feDropShadow dx="0" dy="4" stdDeviation="6" flood-opacity=".08"/></filter></defs>
<g clip-path="url(#c)">
<rect x="0" y="0" width="1200" height="800" rx="0" fill="#ffffff" />
<rect x="0" y="0" width="1200" height="52" rx="0" fill="#e9edf0" />
<circle cx="26" cy="26" r="6.5" fill="#ff5f57"/><circle cx="48" cy="26" r="6.5" fill="#febc2e"/><circle cx="70" cy="26" r="6.5" fill="#28c840"/>
<rect x="250" y="13" width="700" height="27" rx="13.5" fill="#ffffff" />
<path d="M270 22.5v-2a4 4 0 0 1 8 0v2" fill="none" stroke="#6b7280" stroke-width="1.6"/><rect x="267" y="22" width="14" height="10" rx="2" fill="#6b7280" />
<text x="292" y="31.5" font-size="13" font-weight="400" fill="#6b7280" text-anchor="start">rooms.example.com/calendar</text>
<g transform="translate(0 52)"><rect x="0" y="0" width="230" height="748" rx="0" fill="#2a1943" /><rect x="22" y="24" width="34" height="34" rx="9" fill="#7f3cdd" /><text x="68" y="47" font-size="17" font-weight="700" fill="#ffffff" text-anchor="start">Room Booking</text><rect x="14" y="92" width="202" height="38" rx="9" fill="rgba(255,255,255,.12)" /><rect x="14" y="92" width="4" height="38" rx="2" fill="#8c4ce6" /><rect x="32" y="103" width="16" height="16" rx="4" fill="rgba(255,255,255,.9)" /><text x="60" y="116" font-size="14" font-weight="600" fill="#ffffff" text-anchor="start">ปฏิทินห้อง</text><rect x="32" y="149" width="16" height="16" rx="4" fill="rgba(255,255,255,.35)" /><text x="60" y="162" font-size="14" font-weight="400" fill="rgba(255,255,255,.6)" text-anchor="start">การจองของฉัน</text><rect x="32" y="195" width="16" height="16" rx="4" fill="rgba(255,255,255,.35)" /><text x="60" y="208" font-size="14" font-weight="400" fill="rgba(255,255,255,.6)" text-anchor="start">ห้องประชุม</text><rect x="32" y="241" width="16" height="16" rx="4" fill="rgba(255,255,255,.35)" /><text x="60" y="254" font-size="14" font-weight="400" fill="rgba(255,255,255,.6)" text-anchor="start">อุปกรณ์</text><rect x="32" y="287" width="16" height="16" rx="4" fill="rgba(255,255,255,.35)" /><text x="60" y="300" font-size="14" font-weight="400" fill="rgba(255,255,255,.6)" text-anchor="start">ตั้งค่า</text><rect x="22" y="676" width="186" height="50" rx="12" fill="rgba(255,255,255,.07)" /><circle cx="46" cy="701" r="13" fill="#d28cd9"/><text x="68" y="697" font-size="13" font-weight="600" fill="#fff" text-anchor="start">Admin</text><text x="68" y="714" font-size="11" font-weight="400" fill="rgba(255,255,255,.55)" text-anchor="start">ผู้ดูแลระบบ</text><text x="262" y="46" font-size="24" font-weight="700" fill="#111827" text-anchor="start">ปฏิทินการจองห้อง</text><text x="262" y="70" font-size="13" font-weight="400" fill="#6b7280" text-anchor="start">สัปดาห์ที่ 12–16 มกราคม 2569</text><rect x="900" y="24" width="180" height="38" rx="10" fill="#f3f4f6" /><text x="916" y="48" font-size="13" font-weight="400" fill="#9ca3af" text-anchor="start">ค้นหา...</text><rect x="1096" y="24" width="76" height="38" rx="10" fill="#602bab" /><text x="1134" y="48" font-size="13" font-weight="600" fill="#fff" text-anchor="middle">+ เพิ่ม</text><g filter="url(#sh)"><rect x="262" y="96" width="910" height="630" rx="14" fill="#ffffff" stroke="#eceff3"/></g><text x="414.4" y="128" font-size="13.5" font-weight="700" fill="#374151" text-anchor="middle">จันทร์ 12</text><text x="579.2" y="128" font-size="13.5" font-weight="700" fill="#374151" text-anchor="middle">อังคาร 13</text><text x="744.0" y="128" font-size="13.5" font-weight="700" fill="#5c29a3" text-anchor="middle">พุธ 14</text><rect x="669.6" y="136" width="148.8" height="3" rx="1.5" fill="#672eb8" /><text x="908.8000000000001" y="128" font-size="13.5" font-weight="700" fill="#374151" text-anchor="middle">พฤหัส 15</text><text x="1073.6000000000001" y="128" font-size="13.5" font-weight="700" fill="#374151" text-anchor="middle">ศุกร์ 16</text><text x="284" y="155" font-size="12" font-weight="400" fill="#9ca3af" text-anchor="start">08:00</text><line x1="332" x2="1156" y1="150" y2="150" stroke="#f1f3f5"/><text x="284" y="217" font-size="12" font-weight="400" fill="#9ca3af" text-anchor="start">09:00</text><line x1="332" x2="1156" y1="212" y2="212" stroke="#f1f3f5"/><text x="284" y="279" font-size="12" font-weight="400" fill="#9ca3af" text-anchor="start">10:00</text><line x1="332" x2="1156" y1="274" y2="274" stroke="#f1f3f5"/><text x="284" y="341" font-size="12" font-weight="400" fill="#9ca3af" text-anchor="start">11:00</text><line x1="332" x2="1156" y1="336" y2="336" stroke="#f1f3f5"/><text x="284" y="403" font-size="12" font-weight="400" fill="#9ca3af" text-anchor="start">12:00</text><line x1="332" x2="1156" y1="398" y2="398" stroke="#f1f3f5"/><text x="284" y="465" font-size="12" font-weight="400" fill="#9ca3af" text-anchor="start">13:00</text><line x1="332" x2="1156" y1="460" y2="460" stroke="#f1f3f5"/><text x="284" y="527" font-size="12" font-weight="400" fill="#9ca3af" text-anchor="start">14:00</text><line x1="332" x2="1156" y1="522" y2="522" stroke="#f1f3f5"/><text x="284" y="589" font-size="12" font-weight="400" fill="#9ca3af" text-anchor="start">15:00</text><line x1="332" x2="1156" y1="584" y2="584" stroke="#f1f3f5"/><text x="284" y="651" font-size="12" font-weight="400" fill="#9ca3af" text-anchor="start">16:00</text><line x1="332" x2="1156" y1="646" y2="646" stroke="#f1f3f5"/><line x1="332.0" x2="332.0" y1="146" y2="706" stroke="#f1f3f5"/><line x1="496.8" x2="496.8" y1="146" y2="706" stroke="#f1f3f5"/><line x1="661.6" x2="661.6" y1="146" y2="706" stroke="#f1f3f5"/><line x1="826.4000000000001" x2="826.4000000000001" y1="146" y2="706" stroke="#f1f3f5"/><line x1="991.2" x2="991.2" y1="146" y2="706" stroke="#f1f3f5"/><line x1="1156.0" x2="1156.0" y1="146" y2="706" stroke="#f1f3f5"/><rect x="338.0" y="215" width="152.8" height="87.0" rx="8" fill="#e0edfb" /><rect x="338.0" y="215" width="4" height="87.0" rx="2" fill="#337fcc" /><text x="350.0" y="237" font-size="12.5" font-weight="700" fill="#194066" text-anchor="start">ประชุมทีมขาย</text><text x="350.0" y="255" font-size="11" font-weight="400" fill="#3d668f" text-anchor="start">ห้อง A · 9:00</text><rect x="338.0" y="401" width="152.8" height="56" rx="8" fill="#fbede0" /><rect x="338.0" y="401" width="4" height="56" rx="2" fill="#cc8033" /><text x="350.0" y="423" font-size="12.5" font-weight="700" fill="#664019" text-anchor="start">สัมภาษณ์งาน</text><text x="350.0" y="441" font-size="11" font-weight="400" fill="#8f663d" text-anchor="start">ห้อง B · 12:00</text><rect x="502.8" y="184.0" width="152.8" height="118" rx="8" fill="#e0fbed" /><rect x="502.8" y="184.0" width="4" height="118" rx="2" fill="#33cc80" /><text x="514.8" y="206.0" font-size="12.5" font-weight="700" fill="#196640" text-anchor="start">อบรมพนักงานใหม่</text><text x="514.8" y="224.0" font-size="11" font-weight="400" fill="#3d8f66" text-anchor="start">ห้องใหญ่ · 8:30</text><rect x="667.6" y="215" width="152.8" height="56" rx="8" fill="#e9e0fb" /><rect x="667.6" y="215" width="4" height="56" rx="2" fill="#6633cc" /><text x="679.6" y="237" font-size="12.5" font-weight="700" fill="#331966" text-anchor="start">Daily Standup</text><text x="679.6" y="255" font-size="11" font-weight="400" fill="#583d8f" text-anchor="start">ห้อง A · 9:00</text><rect x="667.6" y="339" width="152.8" height="118" rx="8" fill="#fbe0e9" /><rect x="667.6" y="339" width="4" height="118" rx="2" fill="#cc3366" /><text x="679.6" y="361" font-size="12.5" font-weight="700" fill="#661933" text-anchor="start">นำเสนอลูกค้า</text><text x="679.6" y="379" font-size="11" font-weight="400" fill="#8f3d58" text-anchor="start">ห้อง VIP · 11:00</text><rect x="832.4000000000001" y="277" width="152.8" height="87.0" rx="8" fill="#fbe0e0" /><rect x="832.4000000000001" y="277" width="4" height="87.0" rx="2" fill="#cc3333" /><text x="844.4000000000001" y="299" font-size="12.5" font-weight="700" fill="#661919" text-anchor="start">ประชุมผู้บริหาร</text><text x="844.4000000000001" y="317" font-size="11" font-weight="400" fill="#8f3d3d" text-anchor="start">ห้อง VIP · 10:00</text><rect x="832.4000000000001" y="494.0" width="152.8" height="56" rx="8" fill="#e0fbfb" /><rect x="832.4000000000001" y="494.0" width="4" height="56" rx="2" fill="#33cccc" /><text x="844.4000000000001" y="516.0" font-size="12.5" font-weight="700" fill="#196666" text-anchor="start">Workshop UX</text><text x="844.4000000000001" y="534.0" font-size="11" font-weight="400" fill="#3d8f8f" text-anchor="start">ห้อง B · 13:30</text><rect x="997.2" y="246.0" width="152.8" height="56" rx="8" fill="#e0fbe0" /><rect x="997.2" y="246.0" width="4" height="56" rx="2" fill="#33cc33" /><text x="1009.2" y="268.0" font-size="12.5" font-weight="700" fill="#196619" text-anchor="start">สรุปงานประจำสัปดาห์</text><text x="1009.2" y="286.0" font-size="11" font-weight="400" fill="#3d8f3d" text-anchor="start">ห้องใหญ่ · 9:30</text><rect x="997.2" y="525" width="152.8" height="87.0" rx="8" fill="#fbf4e0" /><rect x="997.2" y="525" width="4" height="87.0" rx="2" fill="#cca633" /><text x="1009.2" y="547" font-size="12.5" font-weight="700" fill="#665319" text-anchor="start">เลี้ยงส่งพนักงาน</text><text x="1009.2" y="565" font-size="11" font-weight="400" fill="#8f7a3d" text-anchor="start">ห้องใหญ่ · 14:00</text><line x1="661.6" x2="826.4000000000001" y1="360.79999999999995" y2="360.79999999999995" stroke="#ef4444" stroke-width="2"/><circle cx="661.6" cy="360.79999999999995" r="5" fill="#ef4444"/></g>
</g></svg>